<svg width="164" height="233" viewBox="0 0 164 233" fill="none" xmlns="http://www.w3.org/2000/svg">
<g clip-path="url(#clip0_42_2)">
<path d="M44.9689 106.623C42.6509 106.623 40.3328 107.918 38.2724 108.953C36.9846 109.47 35.6968 110.247 34.409 111.023C33.1213 111.8 31.3184 113.352 31.0608 111.023C30.8033 108.953 31.8335 106.365 32.3486 104.553C33.1213 102.482 34.409 100.93 35.9544 99.6356C38.0149 97.824 40.3329 96.7887 42.9084 96.5298C49.0898 95.7535 60.4224 98.3414 65.8312 98.3414C67.8912 98.3414 69.9518 99.1177 71.4971 100.412C72.0124 100.93 72.5277 101.447 72.7848 102.223C73.3001 103.259 73.3001 104.294 73.0424 105.07C72.27 106.623 69.9518 107.141 68.4065 107.4C65.8312 107.918 63.2553 107.659 60.9376 107.141C54.2411 104.812 48.5747 106.623 44.9689 106.623ZM54.4983 116.199C56.0436 115.682 57.0741 114.647 58.3618 113.87C59.1347 113.611 59.6494 113.093 60.68 113.093C61.1947 113.093 62.2253 113.87 62.74 113.611C65.8312 112.835 59.9071 109.729 58.3618 109.47C54.4983 108.952 50.3776 108.694 46.7718 109.988C45.484 110.506 42.9084 111.8 42.1358 113.093C40.0753 116.458 45.484 113.611 46.5142 113.611C49.3473 113.87 50.8926 116.199 53.4682 116.199C53.7259 116.199 54.2411 116.199 54.4983 116.199ZM112.191 108.435C109.1 107.918 106.01 107.918 102.919 108.953C101.374 109.47 100.086 109.988 98.7984 110.764C98.2831 111.023 96.9954 112.317 96.9954 112.835C96.9954 115.164 102.147 111.8 102.919 111.8C104.464 111.8 105.495 113.87 107.04 114.388C107.813 114.647 108.585 114.388 109.1 114.129C109.615 113.611 110.131 113.093 110.646 112.576C111.934 111.282 113.994 110.764 115.797 111.541C115.797 109.729 113.737 108.694 112.191 108.435ZM125.069 98.0829C122.493 95.2356 118.373 93.9419 114.767 94.4593C110.646 95.2356 106.267 96.2708 101.889 96.5298C101.374 96.5298 101.116 96.5298 100.601 96.5298C95.9649 96.7887 90.2989 101.447 86.1778 99.3766C84.6325 98.6003 83.3448 97.824 81.5419 97.565C80.7695 99.1177 82.3148 100.93 83.6024 102.223C85.663 104.294 83.8601 105.588 81.7995 106.365C80.5118 106.882 76.9059 107.918 80.2542 109.211C81.5419 109.729 82.8295 109.211 83.8601 109.988C84.6325 110.506 85.1477 111.541 85.663 112.576C86.4354 114.647 86.693 116.717 87.2083 118.788C87.9807 122.928 88.496 126.81 90.0413 130.692C91.8442 135.61 89.0113 135.869 89.0113 140.786C89.0113 141.562 89.526 142.598 90.2989 142.857C91.0713 143.115 91.5866 142.857 92.3595 142.598C104.207 138.457 86.4354 111.8 91.3289 110.764C93.3895 110.764 95.1925 109.47 96.7378 107.918C104.464 101.447 115.797 100.671 123.524 107.4C124.811 108.435 127.644 112.576 129.19 109.47C129.705 108.435 129.447 106.882 128.932 105.847C128.16 103.518 127.13 100.412 125.069 98.0829ZM68.9218 149.844C68.4065 150.103 67.8912 150.621 67.8912 151.139C67.8912 151.915 68.9218 152.691 69.6942 153.209C70.9818 153.985 72.5277 154.244 74.3301 154.244H74.8454C76.133 154.244 77.4212 153.985 78.1936 155.021C78.4512 155.538 78.7089 156.056 78.7089 156.832C78.7089 157.091 78.7089 157.609 78.7089 157.868V158.127L78.9665 158.385C79.2236 158.644 79.4813 158.644 79.7389 158.644C80.5118 158.644 81.0266 158.385 82.0571 157.609H82.3148C82.8295 157.091 83.6024 156.573 84.1177 156.832C84.3748 156.832 84.6325 157.091 84.8901 157.091C85.1477 157.091 85.4054 157.35 85.663 157.35C87.7231 157.868 89.526 156.056 90.0413 155.538C90.2989 155.279 90.8137 155.021 91.5866 154.503C93.1319 153.727 94.6772 152.691 94.6772 151.397C94.6772 150.621 94.1619 150.103 93.1319 149.585C92.3595 149.068 91.329 149.068 90.0413 149.327C88.496 149.585 87.2083 150.103 85.9201 150.621C85.4054 150.88 84.6325 151.139 84.1177 151.397C81.7995 152.174 79.7389 152.432 78.1936 151.915C77.4212 151.656 76.9059 151.397 76.133 150.88C75.103 150.362 74.073 149.844 73.0424 149.585C71.7548 149.327 69.9518 149.327 68.9218 149.844ZM55.5288 160.196C56.5588 158.903 57.3318 157.609 58.1041 156.573C58.6194 155.797 59.1347 155.021 59.9071 153.985C60.4224 153.209 61.1947 152.174 61.71 151.397C62.4829 150.103 63.513 148.55 64.543 147.257L64.8006 146.739C66.6036 144.668 68.6641 142.339 68.1489 140.269C68.1489 140.01 67.8912 138.974 67.1189 138.715C66.0883 138.457 65.3159 139.751 64.2859 141.045C64.0282 141.304 64.0282 141.562 63.7706 141.562C62.74 142.857 61.71 143.892 60.68 145.186C59.1347 146.739 57.5894 148.55 56.3012 150.362C55.2712 151.656 54.4983 153.468 53.4682 154.762L53.2106 155.538C52.953 155.797 52.6956 156.314 52.438 156.832C51.4078 158.127 50.3776 159.938 50.3776 161.232C50.6351 162.267 51.1502 162.267 51.6653 162.526H51.9229C51.9229 162.526 52.1805 162.526 52.438 162.526H52.6956H52.953C53.7259 162.267 54.2411 161.232 54.7559 160.455C55.2712 160.714 55.2712 160.455 55.5288 160.196ZM106.525 150.362C105.752 149.068 104.98 148.033 103.95 146.739C103.177 145.703 102.404 144.668 101.631 143.633C101.374 143.115 99.0555 140.269 97.5102 140.786C96.9954 140.786 96.7378 141.304 96.7378 142.598C96.7378 143.633 98.0254 145.444 99.3131 147.257L99.5707 147.774C99.8284 148.292 101.116 149.585 102.404 151.397C103.692 152.95 104.98 154.503 105.752 155.538C106.783 157.091 108.07 158.126 109.358 159.161C109.873 159.679 110.388 159.679 110.646 159.679C110.903 159.679 111.161 159.42 111.418 159.42C111.934 158.903 111.676 157.868 110.903 157.091C109.873 156.314 107.298 151.656 106.525 150.362ZM97.2531 173.396C95.7077 174.172 94.4196 174.69 92.8743 174.949C92.1019 175.208 91.0713 175.208 90.0413 175.466C89.0113 175.725 87.7231 175.725 86.693 176.243C84.3748 177.019 82.3148 176.761 79.9965 176.761C79.2236 176.761 78.4512 176.761 77.6783 176.502C76.9059 176.502 75.8754 176.502 75.103 176.502C73.8153 176.502 72.27 176.502 70.9818 176.502C70.7247 176.502 70.4671 176.502 69.9518 176.502C67.1188 176.243 64.2859 175.725 62.9977 176.761C62.74 177.019 62.4829 177.537 62.4829 177.795C62.4829 179.09 64.2854 179.866 66.0883 180.643C67.6336 181.16 69.1794 181.419 70.4671 181.678C70.9818 181.678 71.7548 181.936 72.27 181.936C74.5877 182.454 77.4212 182.972 80.5118 182.972C82.8295 182.972 85.1477 182.713 87.2083 181.678C89.7837 180.643 92.6166 179.09 95.9649 177.537C96.4801 177.278 96.7378 177.278 97.2531 177.019C98.0254 176.761 99.0555 176.243 99.5707 175.725C99.8284 175.466 100.086 175.208 100.086 174.949C100.344 174.431 100.344 173.913 100.086 173.396C99.5707 172.878 98.2831 172.878 97.2531 173.396ZM100.344 169.514C98.7984 169.255 96.9954 168.996 95.1925 168.996C92.1019 168.479 89.0113 168.22 85.9201 168.22C85.1477 168.22 84.1177 168.479 83.3448 168.479C81.7995 168.738 80.2542 168.996 78.9665 168.479C78.4512 168.22 78.1936 168.22 77.6783 167.961C75.6183 167.184 73.3001 166.408 70.9818 166.667C69.4365 166.926 68.1489 167.184 66.8612 167.443C65.8312 167.702 65.0583 167.961 64.0282 167.961C63.2553 167.961 62.4829 168.22 61.9677 168.479C61.1947 168.738 60.68 168.738 59.9071 168.996H59.3918C58.3618 169.255 57.3318 169.255 56.5588 169.773C56.0436 170.031 55.0135 170.808 54.7559 171.843C54.7559 172.361 54.7559 172.62 55.0135 172.879C55.2712 173.396 55.7864 173.396 56.3012 173.396C57.0741 173.396 58.3618 172.878 59.1347 172.62C59.6494 172.361 59.9071 172.361 60.1647 172.361L60.9376 172.102C62.74 171.843 64.543 171.325 66.3459 171.066C67.6336 170.808 69.1794 171.066 70.7247 171.066C71.4971 171.066 72.0124 171.066 72.7848 171.066C77.1636 171.325 82.0571 171.584 87.4654 171.843C88.496 171.843 89.526 171.843 90.5566 171.843C91.0713 171.843 91.8442 171.843 92.3595 171.843C92.6166 171.843 93.1319 171.843 93.3895 171.843C93.6472 171.843 94.1619 171.843 94.4196 171.843C96.7378 172.102 100.086 172.361 101.374 171.066C101.631 170.808 101.889 170.29 101.631 169.773C101.631 169.514 101.374 168.996 101.116 168.996C100.601 169.514 100.344 169.514 100.344 169.514ZM163.96 107.659C163.702 109.47 163.187 111.023 162.93 112.576L160.869 118.788C157.521 128.881 154.173 139.233 148.507 148.292L147.991 149.327C146.704 151.397 145.416 153.727 142.583 154.762C141.81 155.021 141.037 155.021 140.522 155.021C139.234 155.021 138.204 154.762 136.917 154.244C137.174 155.021 137.174 156.056 137.431 156.832C137.431 157.35 137.689 157.868 137.689 158.127C138.977 163.561 138.72 169.514 136.917 174.949C136.401 176.502 135.629 178.313 135.114 179.866C134.083 182.454 133.053 184.783 132.538 187.372C131.25 194.618 128.16 199.277 124.038 205.488L123.781 205.747C122.751 207.3 121.978 209.112 120.948 210.664C119.66 213.252 118.373 215.841 116.312 218.17C110.646 224.122 102.147 231.369 92.8743 231.369C92.6166 231.369 92.3595 231.369 92.1019 231.369C84.3748 231.369 77.4212 231.887 69.6942 232.922C62.74 233.698 57.8465 228.522 52.6956 224.64C47.0293 220.24 43.6811 213.77 40.5904 207.559C35.4393 196.947 30.5457 185.301 29.773 172.102C29.773 171.066 29.773 170.031 29.773 168.996C29.773 165.373 29.5155 161.75 28.2277 158.644C28.2277 158.385 28.2277 158.385 27.9701 158.127C27.455 158.385 26.9399 158.644 26.4248 158.903C25.9097 159.161 25.137 159.161 24.3644 159.161C22.819 159.161 21.0161 158.644 19.4708 157.609C17.6679 156.573 16.6376 155.021 15.0923 153.468C13.2894 151.397 11.7441 149.585 9.9412 147.774C7.10808 145.186 5.82025 141.562 4.53249 138.198C4.27493 137.422 3.75984 136.387 3.50228 135.61C2.98717 133.798 2.21449 131.987 1.95693 130.175C0.9267 126.552 0.411597 122.928 0.154041 119.305C-0.103516 116.976 -0.103524 114.647 0.669146 112.317C1.44181 109.729 2.98717 107.141 5.56272 105.329C5.82031 104.812 5.82031 104.553 6.07784 104.035C8.91097 99.1177 7.88073 90.0598 6.85054 81.5188C6.59296 78.6719 6.07784 75.8251 6.07784 72.9782C5.30519 62.8846 9.9412 47.0975 12.7743 38.5568C13.8046 35.1923 17.1528 31.569 20.501 27.9456C23.0766 25.0987 25.3946 22.5107 26.6824 20.1813C29.2579 15.0052 31.8335 10.8643 38.7875 7.49979C43.6811 5.1705 48.0596 5.1705 53.7259 4.91169C61.4524 4.91169 68.9218 4.13527 76.3907 2.32361C79.2236 1.54718 82.3148 0.770748 86.4354 0.253134C96.2225 -1.29972 111.676 4.65285 117.342 8.27616C122.236 11.3819 124.811 22.7694 125.584 26.134C128.932 26.3928 140.522 27.6868 147.476 33.1218C155.46 39.3332 152.627 52.5324 151.34 59.0025L151.082 59.7788C149.794 65.7314 151.082 70.3904 154.946 75.5661C158.036 79.7072 163.445 96.5298 162.157 99.8945C163.187 101.706 164.217 104.553 163.96 107.659ZM26.1673 153.209C24.1068 148.809 21.7888 144.151 18.9556 138.974C17.6679 136.387 16.3801 133.798 15.865 130.951C15.3499 128.104 16.1225 125.775 17.4103 123.187C18.183 121.893 18.6981 120.34 18.9556 118.788C19.7284 113.611 15.0923 108.952 9.9412 109.988C7.88073 110.506 5.56272 111.541 4.79006 113.87C4.27495 115.423 4.53249 116.976 4.53249 118.529C4.79005 122.152 5.56277 125.775 6.33543 129.14C6.85054 130.951 7.36561 132.504 7.88073 134.316C9.1685 137.68 10.1987 141.821 13.0319 144.151C15.0923 145.962 16.8952 148.033 18.6981 150.103C19.7283 151.397 20.7585 152.432 22.0464 153.209C23.0765 153.985 24.3643 154.244 25.137 153.985C25.6521 153.727 25.9097 153.468 26.1673 153.209ZM132.796 115.682C130.478 107.659 132.28 98.8593 132.796 90.5772C133.053 87.213 132.023 81.0014 130.993 75.5661C130.478 72.9782 129.963 70.1314 129.705 67.5435C129.447 64.4377 128.932 61.5909 128.16 58.4851C127.387 55.3793 125.841 52.5324 124.554 49.4267C123.008 45.2858 116.827 39.0744 108.585 39.0744C101.889 39.0744 97.5102 43.9917 91.5866 46.5798C85.4054 49.4267 80.5118 48.6503 75.8754 48.1327C70.2095 47.3562 64.2853 47.3562 58.6194 46.8387C52.953 46.321 47.0293 46.5798 41.8782 48.9091C34.409 52.5324 31.0608 57.1909 27.455 62.1083C26.6824 63.4025 25.6521 64.4377 24.8795 65.7314C21.0161 70.6488 22.0464 95.2356 22.819 104.035C23.0766 106.106 22.819 108.435 22.819 110.506C22.819 112.576 23.3341 114.647 23.5917 116.976C23.8493 119.822 23.8492 122.67 23.8492 125.517V125.775C24.1068 129.657 26.1673 133.281 27.455 135.61C31.8335 142.857 35.1817 150.103 38.7875 158.127C40.5904 162.009 42.3933 166.149 44.4537 170.031C45.484 171.843 46.5142 174.172 48.0596 175.208C50.3776 176.761 52.953 178.054 55.5288 179.09C57.5894 180.125 59.9071 180.901 61.71 182.195C62.4829 182.713 63.2553 183.231 63.7706 183.748C65.0583 184.783 66.6036 185.819 68.1489 186.078C68.9218 186.078 69.9518 185.819 70.9818 185.56C71.4971 185.301 71.7548 185.301 72.27 185.042C75.8754 184.007 79.4813 184.525 83.0872 185.301C85.4054 185.56 87.7231 186.078 89.7836 186.078C94.4196 186.078 99.3131 183.748 103.434 181.936C106.267 180.643 109.358 179.349 111.418 177.019C115.024 172.879 115.54 167.184 115.797 161.232C116.312 154.762 116.57 148.033 121.721 143.115C122.751 142.08 124.038 141.045 125.327 140.269C125.841 140.01 126.357 139.751 126.614 139.492C128.932 137.939 130.993 135.869 132.538 133.54C134.083 131.21 134.598 129.399 135.114 126.552C136.144 122.411 133.826 119.305 132.796 115.682ZM159.582 107.141C159.839 104.553 158.551 101.965 156.233 100.412C153.915 98.8593 151.855 98.6003 149.279 99.8945C145.159 101.706 142.583 108.435 142.583 112.576C142.583 115.423 142.84 118.529 143.613 121.117C144.386 123.446 143.87 125.775 143.613 128.104C143.098 130.692 141.037 132.504 140.522 134.833C140.265 136.387 140.007 137.939 139.75 139.233C139.234 141.821 138.72 144.151 137.947 146.739L137.689 147.515C137.431 148.033 137.431 148.55 137.174 149.068C138.72 149.844 140.007 150.362 141.295 150.103C142.325 149.844 143.356 148.291 144.128 146.739L144.901 145.703C150.31 136.904 153.658 126.81 156.749 117.234L158.809 111.023C159.066 109.729 159.582 108.435 159.582 107.141Z" fill="#F5F5F5"/>
</g>
<defs>
<clipPath id="clip0_42_2">
<rect width="164" height="233" fill="white"/>
</clipPath>
</defs>
</svg>
